<svg width="72" height="86" viewBox="0 0 72 86" fill="none" xmlns="http://www.w3.org/2000/svg">
<g clip-path="url(#clip0_0_48)">
<path fill-rule="evenodd" clip-rule="evenodd" d="M70.6303 65.4568C69.9869 66.68 68.3539 67.9997 66.9992 67.9997H4.99925C3.6445 67.9997 2.0052 66.6791 1.36476 65.4568C-2.17418 58.7227 1.98475 54.987 4.21985 52.9802C5.12402 52.1666 5.97766 51.3984 6.42118 50.5773C6.45876 50.5172 6.48209 50.4719 6.50923 50.427C8.10475 47.8116 8.68716 41.4706 9.03269 37.6819C9.08316 37.1203 9.13068 36.5839 9.18158 36.0779C9.18828 36.0354 9.19159 35.9888 9.19829 35.9405C9.98064 30.3217 11.9178 22.252 16.7135 15.6014C20.0664 10.9423 24.2491 7.82394 29.1529 6.321C29.5088 2.77212 32.4415 -0.005418 35.9976 -0.005418C39.5503 -0.005418 42.4868 2.77152 42.8422 6.32005C47.7426 7.82462 51.9254 10.9426 55.2816 15.6005C60.0773 22.252 62.0145 30.3217 62.7935 35.9202C62.8001 35.9888 62.8068 36.0354 62.8101 36.082C62.861 36.5827 62.9119 37.1203 62.9628 37.6819C63.3117 41.4702 63.8875 47.8101 65.4759 50.4108C65.5163 50.4809 65.5502 50.5353 65.5772 50.5888C66.0174 51.4 66.8711 52.1675 67.7753 52.9802C70.0108 54.9876 74.166 58.7239 70.6303 65.4568ZM28.6301 75.0138H43.1055C43.9221 75.0138 44.381 75.4457 44.5805 75.7026C45.1508 76.4292 44.9956 77.2932 44.9213 77.7081C44.9142 77.7429 44.9076 77.775 44.9042 77.8036C44.2901 82.4811 40.4561 86.0088 35.9875 86.0088C31.6032 86.0088 27.874 82.6936 27.1213 78.1258L27.1113 78.067C26.9966 77.3849 26.8276 76.3538 27.4151 75.6115C27.7155 75.2319 28.1573 75.0138 28.6301 75.0138Z" fill="#AEB8C4"/>
</g>
<defs>
<clipPath id="clip0_0_48">
<rect width="72" height="86" fill="white"/>
</clipPath>
</defs>
</svg>
