<svg width="88" height="87" viewBox="0 0 88 87" fill="none" xmlns="http://www.w3.org/2000/svg">
<g clip-path="url(#clip0_0_33)">
<path fill-rule="evenodd" clip-rule="evenodd" d="M9.99988 8.7e-05H14.5001H46H59.5C62.5374 8.7e-05 64.9999 2.46253 64.9999 5.50005V6.49986C64.9999 9.53746 62.5374 12.0002 59.5 12.0002H56.0002H17.9999C14.6862 12.0002 12.0001 14.6863 12.0001 17.9999C12.0001 21.3137 14.6862 23.9999 17.9999 23.9999H56.0002H78C83.5229 23.9999 87.9998 28.4772 87.9998 33.9999V76.9999C87.9998 82.523 83.5229 87 78 87H9.99988C4.477 87 8.8e-05 82.523 8.8e-05 76.9999V59.0002V33.9999V9.99995C8.8e-05 4.47711 4.477 8.7e-05 9.99988 8.7e-05ZM75.9998 54.9997C75.9998 50.5815 72.4178 46.9998 67.9998 46.9998C63.5813 46.9998 59.9998 50.5815 59.9998 54.9997C59.9998 59.4182 63.5813 62.9999 67.9998 62.9999C72.4178 62.9999 75.9998 59.4182 75.9998 54.9997Z" fill="#4C5968"/>
</g>
<defs>
<clipPath id="clip0_0_33">
<rect width="88" height="87" fill="white"/>
</clipPath>
</defs>
</svg>
