<?xml version="1.0" encoding="UTF-8"?>
<!DOCTYPE svg PUBLIC "-//W3C//DTD SVG 1.1//EN" "http://www.w3.org/Graphics/SVG/1.1/DTD/svg11.dtd">
<svg xmlns="http://www.w3.org/2000/svg" version="1.1" width="20px" height="83px" style="shape-rendering:geometricPrecision; text-rendering:geometricPrecision; image-rendering:optimizeQuality; fill-rule:evenodd; clip-rule:evenodd" xmlns:xlink="http://www.w3.org/1999/xlink">
<g><path style="opacity:0.889" fill="#adb8c3" d="M 5.5,1.5 C 18.3183,0.643806 21.6516,5.81047 15.5,17C 4.86472,20.3646 0.364725,16.5313 2,5.5C 3.10219,4.05104 4.26886,2.7177 5.5,1.5 Z"/></g>
<g><path style="opacity:0.882" fill="#adb8c3" d="M 6.5,32.5 C 16.2117,31.7091 20.0451,36.0424 18,45.5C 12.6667,50.8333 7.33333,50.8333 2,45.5C 0.242973,39.8252 1.74297,35.4918 6.5,32.5 Z"/></g>
<g><path style="opacity:0.89" fill="#adb8c3" d="M 7.5,64.5 C 16.6707,64.1754 20.1707,68.5088 18,77.5C 17.1667,79 16,80.1667 14.5,81C 4.6371,83.1711 0.470437,79.3377 2,69.5C 3.10653,66.887 4.93986,65.2203 7.5,64.5 Z"/></g>
</svg>
