<svg width="96" height="96" viewBox="0 0 96 96" fill="none" xmlns="http://www.w3.org/2000/svg">
<g clip-path="url(#clip0_0_52)" filter="url(#filter0_d_0_52)">
<path fill-rule="evenodd" clip-rule="evenodd" d="M92.011 43.9967C92.011 40.7235 89.6541 37.2325 86.7464 36.2033C83.837 35.174 81.0182 32.6535 80.1996 30.6652C79.3789 28.6778 79.5921 24.8945 80.9173 22.1076C82.2424 19.3216 81.4392 15.1841 79.1248 12.8682C76.8104 10.5532 72.674 9.75119 69.8852 11.077C67.0985 12.4029 63.3192 12.6197 61.3365 11.799C59.3546 10.9794 56.8341 8.15619 55.7986 5.24788C54.7647 2.33922 51.2703 -0.017688 47.9967 -0.017688C44.7224 -0.017688 41.2288 2.33922 40.1941 5.24788C39.1598 8.15619 36.6384 10.9784 34.6562 11.799C32.673 12.6197 28.8942 12.4029 26.1075 11.077C23.3216 9.75119 19.1831 10.5532 16.8679 12.8682C14.5527 15.1841 13.7508 19.32 15.0767 22.1076C16.4026 24.8964 16.613 28.6759 15.7897 30.6618C14.9657 32.6472 12.1557 35.174 9.24753 36.2033C6.3386 37.2325 3.9817 40.7235 3.9817 43.9967C3.9817 47.2702 6.3386 50.7639 9.24753 51.7994C12.1557 52.833 14.9695 55.359 15.7935 57.341C16.6175 59.3215 16.4026 63.0994 15.0767 65.886C13.7508 68.6726 14.5527 72.8095 16.8679 75.1239C19.1831 77.4398 23.3192 78.2425 26.1075 76.9175C28.8963 75.5908 32.673 75.3776 34.6562 76.2C36.6401 77.0224 39.1598 79.8519 40.1941 82.7539C41.2288 85.6563 44.7224 88.0114 47.9967 88.0114C51.2703 88.0114 54.7647 85.6563 55.7986 82.7539C56.8341 79.8519 59.3509 77.0243 61.3331 76.1981C63.3154 75.3742 67.0985 75.5908 69.8852 76.9175C72.6723 78.2425 76.8104 77.4398 79.1248 75.1239C81.4392 72.8095 82.2424 68.6726 80.9173 65.886C79.5921 63.0976 79.3756 59.3197 80.1942 57.3375C81.0149 55.3555 83.837 52.833 86.7464 51.7994C89.6541 50.7639 92.011 47.2702 92.011 43.9967ZM47.9967 60.1473C39.0663 60.1473 31.8453 52.9272 31.8453 44.0145C31.8453 35.0849 39.0663 27.8641 47.9967 27.8641C56.9089 27.8641 64.1291 35.0849 64.1291 44.0145C64.1291 52.9272 56.9089 60.1473 47.9967 60.1473Z" fill="#AEB8C4"/>
</g>
<defs>
<filter id="filter0_d_0_52" x="0" y="0" width="96" height="96" filterUnits="userSpaceOnUse" color-interpolation-filters="sRGB">
<feFlood flood-opacity="0" result="BackgroundImageFix"/>
<feColorMatrix in="SourceAlpha" type="matrix" values="0 0 0 0 0 0 0 0 0 0 0 0 0 0 0 0 0 0 127 0" result="hardAlpha"/>
<feOffset dy="4"/>
<feGaussianBlur stdDeviation="2"/>
<feComposite in2="hardAlpha" operator="out"/>
<feColorMatrix type="matrix" values="0 0 0 0 0 0 0 0 0 0 0 0 0 0 0 0 0 0 0.25 0"/>
<feBlend mode="normal" in2="BackgroundImageFix" result="effect1_dropShadow_0_52"/>
<feBlend mode="normal" in="SourceGraphic" in2="effect1_dropShadow_0_52" result="shape"/>
</filter>
<clipPath id="clip0_0_52">
<rect width="88" height="88" fill="white" transform="translate(4)"/>
</clipPath>
</defs>
</svg>
