<svg width="88" height="88" viewBox="0 0 88 88" fill="none" xmlns="http://www.w3.org/2000/svg">
<g clip-path="url(#clip0_0_43)">
<path fill-rule="evenodd" clip-rule="evenodd" d="M43.9988 87.9866C19.5986 87.9866 -0.00132 68.3863 -0.00132 43.9857C-0.00132 19.5855 19.5986 -0.014872 43.9988 -0.014872C68.3985 -0.014872 87.9984 19.5855 87.9984 43.9857C87.9984 68.3863 68.3985 87.9866 43.9988 87.9866ZM65.4141 20.7858C65.2359 20.7858 65.0569 20.9642 64.8788 20.9642L32.7556 31.6718C32.2203 31.8502 31.8636 32.2072 31.6846 32.7427L20.9771 64.8662C20.7985 65.0446 20.7985 65.2233 20.7985 65.4016C20.7985 66.4725 21.5124 67.186 22.5831 67.186C22.7621 67.186 22.9402 67.0076 23.1187 67.0076L55.2415 56.2999C55.7769 56.1216 56.134 55.7645 56.3125 55.2291L67.02 23.1055C67.1986 22.9272 67.1986 22.7488 67.1986 22.5702C67.1986 21.4993 66.4847 20.7858 65.4141 20.7858ZM44.799 49.5864C41.2643 49.5864 38.3991 46.721 38.3991 43.1862C38.3991 39.6514 41.2643 36.7859 44.799 36.7859C48.3338 36.7859 51.1989 39.6514 51.1989 43.1862C51.1989 46.721 48.3338 49.5864 44.799 49.5864Z" fill="#AEB8C4"/>
</g>
<defs>
<clipPath id="clip0_0_43">
<rect width="88" height="88" fill="white"/>
</clipPath>
</defs>
</svg>
