<svg width="17" height="80" viewBox="0 0 17 80" fill="none" xmlns="http://www.w3.org/2000/svg">
<g clip-path="url(#clip0_3_21)">
<path fill-rule="evenodd" clip-rule="evenodd" d="M16.9995 8.18872C16.9995 12.7114 13.1939 16.3779 8.49962 16.3779C3.80534 16.3779 -0.000244141 12.7114 -0.000244141 8.18872C-0.000244141 3.66632 3.80534 -0.000244141 8.49962 -0.000244141C13.1939 -0.000244141 16.9995 3.66632 16.9995 8.18872ZM16.9995 39.6849C16.9995 44.2075 13.1939 47.8738 8.49962 47.8738C3.80534 47.8738 -0.000244141 44.2075 -0.000244141 39.6849C-0.000244141 35.1622 3.80534 31.4959 8.49962 31.4959C13.1939 31.4959 16.9995 35.1622 16.9995 39.6849ZM16.9995 71.8109C16.9995 76.3336 13.1939 79.9998 8.49962 79.9998C3.80534 79.9998 -0.000244141 76.3336 -0.000244141 71.8109C-0.000244141 67.2882 3.80534 63.622 8.49962 63.622C13.1939 63.622 16.9995 67.2882 16.9995 71.8109Z" fill="#AEB8C4"/>
</g>
<defs>
<clipPath id="clip0_3_21">
<rect width="17" height="80" fill="white"/>
</clipPath>
</defs>
</svg>
