<?xml version="1.0" encoding="UTF-8"?>
<!DOCTYPE svg PUBLIC "-//W3C//DTD SVG 1.1//EN" "http://www.w3.org/Graphics/SVG/1.1/DTD/svg11.dtd">
<svg xmlns="http://www.w3.org/2000/svg" version="1.1" width="512px" height="512px" style="shape-rendering:geometricPrecision; text-rendering:geometricPrecision; image-rendering:optimizeQuality; fill-rule:evenodd; clip-rule:evenodd" xmlns:xlink="http://www.w3.org/1999/xlink">
<g><path style="opacity:0.99" fill="#000000" d="M 79.5,20.5 C 196.834,20.3333 314.167,20.5 431.5,21C 438.004,22.8226 442.837,26.6559 446,32.5C 460.863,69.4206 475.529,106.421 490,143.5C 490.667,253.833 490.667,364.167 490,474.5C 487.5,482.333 482.333,487.5 474.5,490C 328.5,490.667 182.5,490.667 36.5,490C 28.6667,487.5 23.5,482.333 21,474.5C 20.3333,364.167 20.3333,253.833 21,143.5C 35.4708,106.421 50.1375,69.4206 65,32.5C 68.399,26.7237 73.2323,22.7237 79.5,20.5 Z M 99.5,63.5 C 203.502,63.1667 307.502,63.5 411.5,64.5C 419.833,85.1667 428.167,105.833 436.5,126.5C 315.833,127.833 195.167,127.833 74.5,126.5C 83.1233,105.591 91.4566,84.5911 99.5,63.5 Z M 63.5,170.5 C 191.5,170.5 319.5,170.5 447.5,170.5C 447.5,262.833 447.5,355.167 447.5,447.5C 319.5,447.5 191.5,447.5 63.5,447.5C 63.5,355.167 63.5,262.833 63.5,170.5 Z"/></g>
<g><path style="opacity:0.961" fill="#000000" d="M 123.5,361.5 C 155.883,361.029 188.216,361.529 220.5,363C 234.006,369.844 237.84,380.344 232,394.5C 228.474,400.352 223.307,403.852 216.5,405C 184.119,405.971 151.786,405.637 119.5,404C 107.586,397.998 103.419,388.498 107,375.5C 110.283,368.124 115.783,363.457 123.5,361.5 Z"/></g>
</svg>
