<?xml version="1.0" encoding="UTF-8"?>
<!DOCTYPE svg PUBLIC "-//W3C//DTD SVG 1.1//EN" "http://www.w3.org/Graphics/SVG/1.1/DTD/svg11.dtd">
<svg xmlns="http://www.w3.org/2000/svg" version="1.1" width="512px" height="512px" style="shape-rendering:geometricPrecision; text-rendering:geometricPrecision; image-rendering:optimizeQuality; fill-rule:evenodd; clip-rule:evenodd" xmlns:xlink="http://www.w3.org/1999/xlink">
<g><path style="opacity:0.973" fill="#000000" d="M 511.5,165.5 C 511.5,225.5 511.5,285.5 511.5,345.5C 505.7,366.462 492.033,378.962 470.5,383C 452.17,383.5 433.836,383.667 415.5,383.5C 415.334,390.175 415.5,396.842 416,403.5C 417.436,409.87 421.269,414.037 427.5,416C 444.525,417.004 450.359,425.504 445,441.5C 441.057,446.039 436.057,448.039 430,447.5C 418.557,447.021 408.557,443.021 400,435.5C 387.836,446.334 374.003,449.501 358.5,445C 350.285,436.04 350.618,427.374 359.5,419C 364.699,417.182 370.033,415.849 375.5,415C 379.788,412.708 382.622,409.208 384,404.5C 384.5,397.508 384.666,390.508 384.5,383.5C 269.833,383.667 155.166,383.5 40.5,383C 18.9667,378.962 5.30007,366.462 -0.5,345.5C -0.5,285.5 -0.5,225.5 -0.5,165.5C 5.30007,144.538 18.9667,132.038 40.5,128C 155.166,127.5 269.833,127.333 384.5,127.5C 384.666,120.492 384.5,113.492 384,106.5C 382.622,101.792 379.788,98.2917 375.5,96C 370.033,95.1514 364.699,93.8181 359.5,92C 352.17,85.7043 350.67,78.2043 355,69.5C 358.943,64.9612 363.943,62.9612 370,63.5C 381.443,63.9791 391.443,67.9791 400,75.5C 412.164,64.6658 425.997,61.4991 441.5,66C 447.482,71.7874 448.982,78.6208 446,86.5C 441.414,92.592 435.247,95.4253 427.5,95C 421.269,96.963 417.436,101.13 416,107.5C 415.5,114.158 415.334,120.825 415.5,127.5C 433.836,127.333 452.17,127.5 470.5,128C 492.033,132.038 505.7,144.538 511.5,165.5 Z M 43.5,158.5 C 157.167,158.5 270.833,158.5 384.5,158.5C 384.5,223.167 384.5,287.833 384.5,352.5C 270.833,352.667 157.166,352.5 43.5,352C 34.9606,349.795 30.4606,344.295 30,335.5C 29.3333,282.167 29.3333,228.833 30,175.5C 30.6555,166.687 35.1555,161.021 43.5,158.5 Z M 415.5,158.5 C 432.837,158.333 450.17,158.5 467.5,159C 476.039,161.205 480.539,166.705 481,175.5C 481.667,228.833 481.667,282.167 481,335.5C 480.539,344.295 476.039,349.795 467.5,352C 450.17,352.5 432.837,352.667 415.5,352.5C 415.5,287.833 415.5,223.167 415.5,158.5 Z"/></g>
</svg>
