<?xml version="1.0" encoding="UTF-8"?>
<!DOCTYPE svg PUBLIC "-//W3C//DTD SVG 1.1//EN" "http://www.w3.org/Graphics/SVG/1.1/DTD/svg11.dtd">
<svg xmlns="http://www.w3.org/2000/svg" version="1.1" width="512px" height="512px" style="shape-rendering:geometricPrecision; text-rendering:geometricPrecision; image-rendering:optimizeQuality; fill-rule:evenodd; clip-rule:evenodd" xmlns:xlink="http://www.w3.org/1999/xlink">
<g><path style="opacity:0.99" fill="#000000" d="M 248.5,23.5 C 255.877,22.6893 262.877,23.856 269.5,27C 301.667,59.1667 333.833,91.3333 366,123.5C 374.089,138.229 371.256,150.396 357.5,160C 349.833,163.333 342.167,163.333 334.5,160C 316.028,142.529 297.862,124.695 280,106.5C 279.667,195.833 279.333,285.167 279,374.5C 273.543,388.482 263.376,393.982 248.5,391C 240.333,388.167 234.833,382.667 232,374.5C 231.667,285.167 231.333,195.833 231,106.5C 213.138,124.695 194.972,142.529 176.5,160C 162.497,165.331 151.33,161.831 143,149.5C 139.217,140.448 139.884,131.781 145,123.5C 177.167,91.3333 209.333,59.1667 241.5,27C 243.925,25.7874 246.259,24.6207 248.5,23.5 Z"/></g>
<g><path style="opacity:0.996" fill="#000000" d="M 40.5,231.5 C 55.367,229.012 65.5337,234.678 71,248.5C 71.5,312.166 71.6667,375.832 71.5,439.5C 194.167,439.5 316.833,439.5 439.5,439.5C 439.333,375.832 439.5,312.166 440,248.5C 445.457,234.518 455.624,229.018 470.5,232C 478.667,234.833 484.167,240.333 487,248.5C 487.667,317.833 487.667,387.167 487,456.5C 482.833,472.667 472.667,482.833 456.5,487C 322.5,487.667 188.5,487.667 54.5,487C 38.3333,482.833 28.1667,472.667 24,456.5C 23.3333,387.167 23.3333,317.833 24,248.5C 27.0191,240.316 32.5191,234.649 40.5,231.5 Z"/></g>
</svg>
